<svg width="241" height="241" viewBox="0 0 241 241" fill="none" xmlns="http://www.w3.org/2000/svg">
<path fill-rule="evenodd" clip-rule="evenodd" d="M177.467 177.467C145.835 209.1 94.5487 209.1 62.9162 177.467C31.7565 146.308 31.2908 96.0773 61.5191 64.3475L58.6899 61.5183C26.8999 94.8109 27.3659 147.574 60.0878 180.296C93.2823 213.49 147.101 213.49 180.296 180.296C213.49 147.101 213.49 93.2823 180.296 60.0878C147.574 27.3659 94.8109 26.8999 61.5183 58.6899L64.3475 61.5191C96.0773 31.2908 146.308 31.7565 177.468 62.9162C209.1 94.5487 209.1 145.835 177.467 177.467Z" fill="#3A69B7"/>
<circle cx="120.189" cy="120.2" r="53.5" stroke="#3A69B7"/>
<circle cx="66.1885" cy="120.2" r="4" fill="#3A69B7"/>
</svg>
