<svg width="89" height="81" viewBox="0 0 89 81" fill="none" xmlns="http://www.w3.org/2000/svg">
<path d="M89 7.89956L74.9474 15.7981L74.9474 0.00097673L89 7.89956Z" fill="black" fill-opacity="0.04"/>
<path d="M89 29.5823L74.9474 37.4808L74.9474 21.6837L89 29.5823Z" fill="black" fill-opacity="0.04"/>
<path d="M89 51.2649L74.9474 59.1635L74.9474 43.3664L89 51.2649Z" fill="black" fill-opacity="0.04"/>
<path d="M89 72.9476L74.9474 80.8462L74.9474 65.0491L89 72.9476Z" fill="black" fill-opacity="0.04"/>
<path d="M70.2632 7.89956L56.2105 15.7981L56.2105 0.000976954L70.2632 7.89956Z" fill="black" fill-opacity="0.04"/>
<path d="M70.2632 29.5823L56.2105 37.4808L56.2105 21.6837L70.2632 29.5823Z" fill="black" fill-opacity="0.04"/>
<path d="M70.2632 51.2649L56.2105 59.1635L56.2105 43.3664L70.2632 51.2649Z" fill="black" fill-opacity="0.04"/>
<path d="M70.2632 72.9476L56.2105 80.8462L56.2105 65.0491L70.2632 72.9476Z" fill="black" fill-opacity="0.04"/>
<path d="M51.1728 8.05431L37.1202 15.9529L37.1202 0.155732L51.1728 8.05431Z" fill="black" fill-opacity="0.04"/>
<path d="M51.1728 29.737L37.1202 37.6356L37.1202 21.8384L51.1728 29.737Z" fill="black" fill-opacity="0.04"/>
<path d="M51.1728 51.4197L37.1202 59.3183L37.1202 43.5211L51.1728 51.4197Z" fill="black" fill-opacity="0.04"/>
<path d="M51.1728 73.1024L37.1202 81.001L37.1202 65.2038L51.1728 73.1024Z" fill="black" fill-opacity="0.04"/>
<path d="M32.7895 8.05431L18.7368 15.9529L18.7368 0.155732L32.7895 8.05431Z" fill="black" fill-opacity="0.04"/>
<path d="M32.7895 29.737L18.7368 37.6356L18.7368 21.8384L32.7895 29.737Z" fill="black" fill-opacity="0.04"/>
<path d="M32.7895 51.4197L18.7368 59.3183L18.7368 43.5211L32.7895 51.4197Z" fill="black" fill-opacity="0.04"/>
<path d="M32.7895 73.1024L18.7368 81.001L18.7368 65.2038L32.7895 73.1024Z" fill="black" fill-opacity="0.04"/>
<path d="M14.0526 8.05431L1.90225e-07 15.9529L1.84544e-09 0.155732L14.0526 8.05431Z" fill="black" fill-opacity="0.04"/>
<path d="M14.0526 29.737L4.48788e-07 37.6356L2.60409e-07 21.8384L14.0526 29.737Z" fill="black" fill-opacity="0.04"/>
<path d="M14.0526 51.4197L7.07352e-07 59.3183L5.18972e-07 43.5211L14.0526 51.4197Z" fill="black" fill-opacity="0.04"/>
<path d="M14.0526 73.1024L9.65915e-07 81.001L7.77536e-07 65.2038L14.0526 73.1024Z" fill="black" fill-opacity="0.04"/>
</svg>
