<svg width="89" height="81" viewBox="0 0 89 81" fill="none" xmlns="http://www.w3.org/2000/svg">
<path d="M89 7.89858L74.9474 15.7972L74.9474 1.67576e-07L89 7.89858Z" fill="white" fill-opacity="0.04"/>
<path d="M89 29.5813L74.9474 37.4799L74.9474 21.6827L89 29.5813Z" fill="white" fill-opacity="0.04"/>
<path d="M89 51.264L74.9474 59.1626L74.9474 43.3654L89 51.264Z" fill="white" fill-opacity="0.04"/>
<path d="M89 72.9467L74.9474 80.8452L74.9474 65.0481L89 72.9467Z" fill="white" fill-opacity="0.04"/>
<path d="M70.2632 7.89858L56.2105 15.7972L56.2105 3.91011e-07L70.2632 7.89858Z" fill="white" fill-opacity="0.04"/>
<path d="M70.2632 29.5813L56.2105 37.4799L56.2105 21.6827L70.2632 29.5813Z" fill="white" fill-opacity="0.04"/>
<path d="M70.2632 51.264L56.2105 59.1626L56.2105 43.3654L70.2632 51.264Z" fill="white" fill-opacity="0.04"/>
<path d="M70.2632 72.9467L56.2105 80.8452L56.2105 65.0481L70.2632 72.9467Z" fill="white" fill-opacity="0.04"/>
<path d="M51.1728 8.05334L37.1202 15.9519L37.1202 0.154755L51.1728 8.05334Z" fill="white" fill-opacity="0.04"/>
<path d="M51.1728 29.736L37.1202 37.6346L37.1202 21.8375L51.1728 29.736Z" fill="white" fill-opacity="0.04"/>
<path d="M51.1728 51.4187L37.1202 59.3173L37.1202 43.5201L51.1728 51.4187Z" fill="white" fill-opacity="0.04"/>
<path d="M51.1728 73.1014L37.1202 81L37.1202 65.2028L51.1728 73.1014Z" fill="white" fill-opacity="0.04"/>
<path d="M32.7895 8.05334L18.7368 15.9519L18.7368 0.154755L32.7895 8.05334Z" fill="white" fill-opacity="0.04"/>
<path d="M32.7895 29.736L18.7368 37.6346L18.7368 21.8375L32.7895 29.736Z" fill="white" fill-opacity="0.04"/>
<path d="M32.7895 51.4187L18.7368 59.3173L18.7368 43.5201L32.7895 51.4187Z" fill="white" fill-opacity="0.04"/>
<path d="M32.7895 73.1014L18.7368 81L18.7368 65.2028L32.7895 73.1014Z" fill="white" fill-opacity="0.04"/>
<path d="M14.0526 8.05334L1.90225e-07 15.9519L1.84544e-09 0.154756L14.0526 8.05334Z" fill="white" fill-opacity="0.04"/>
<path d="M14.0526 29.736L4.48788e-07 37.6346L2.60409e-07 21.8375L14.0526 29.736Z" fill="white" fill-opacity="0.04"/>
<path d="M14.0526 51.4187L7.07352e-07 59.3173L5.18972e-07 43.5201L14.0526 51.4187Z" fill="white" fill-opacity="0.04"/>
<path d="M14.0526 73.1014L9.65915e-07 81L7.77536e-07 65.2028L14.0526 73.1014Z" fill="white" fill-opacity="0.04"/>
</svg>
