<svg width="39" height="46" viewBox="0 0 39 46" fill="none" xmlns="http://www.w3.org/2000/svg">
<path d="M36.5866 22.1445C37.2295 22.5336 37.2295 23.4664 36.5866 23.8555L1.5178 45.0813C0.851353 45.4847 5.36677e-07 45.0049 5.27388e-07 44.2258L2.11568e-08 1.77417C1.18671e-08 0.995151 0.851349 0.515292 1.5178 0.91867L36.5866 22.1445Z" fill="#3FB5E1"/>
<path d="M4.92208 31.1602H10.3766C12.3247 31.1602 13.2987 30.339 13.2987 28.6967V26.5754C13.2987 24.9331 12.2727 24.112 10.2208 24.112H4.92208C4.63636 24.112 4.49351 24.226 4.49351 24.4541V30.818C4.49351 31.0461 4.63636 31.1602 4.92208 31.1602ZM4.92208 21.3748H9.98701C11.961 21.3748 12.9481 20.5422 12.9481 18.8771V17.3033C12.9481 15.661 11.987 14.8398 10.0649 14.8398H4.92208C4.63636 14.8398 4.49351 14.9539 4.49351 15.182V21.0327C4.49351 21.2608 4.63636 21.3748 4.92208 21.3748ZM0 34V12C0 12 0.935065 12 1.37662 12H10.6104C12.5325 12 14.026 12.4562 15.0909 13.3686C16.1558 14.281 16.6883 15.5697 16.6883 17.2348V18.9114C16.6883 20.8958 15.6234 22.1731 13.4935 22.7434C14.5065 22.8574 15.3377 23.2452 15.987 23.9067C16.6623 24.5682 17 25.4577 17 26.5754V28.7652C17 30.4303 16.4675 31.719 15.4026 32.6314C14.3377 33.5438 12.8571 34 10.961 34H1.37662C0.935065 34 0 34 0 34Z" fill="#182035"/>
</svg>
